<svg xmlns="http://www.w3.org/2000/svg" viewBox="0 0 24 24">
    <!-- Background circle -->
    <circle cx="12" cy="12" r="11" fill="#4A90E2"/>
    
    <!-- Heart -->
    <path d="M12 7.5 L11 6.2 C9.5 4.5 7 4.8 5.8 6.6 C4.9 8 4.9 9.9 5.8 11.3 L12 17 L18.2 11.3 C19.1 9.9 19.1 8 18.2 6.6 C17 4.8 14.5 4.5 13 6.2 L12 7.5Z" 
          fill="#FF5757"/>
    
    <!-- Heartbeat line -->
    <path d="M3 12 L7 12 L9 9 L11 15 L13 11 L15 13 L17 12 L21 12" 
          stroke="#FFF" 
          stroke-width="1.5"
          fill="none"
          stroke-linecap="round"/>
    
    <!-- Realistic Stethoscope -->
    <!-- Ear tubes -->
    <path d="M20 4 C20 4 19 5 18 5 C17 5 16 4 16 4" 
          stroke="#2ECC71" 
          stroke-width="1.5"
          fill="none"/>
    
    <!-- Ear tips -->
    <circle cx="16" cy="4" r="0.5" fill="#2ECC71"/>
    <circle cx="20" cy="4" r="0.5" fill="#2ECC71"/>
    
    <!-- Main tube -->
    <path d="M18 5 L18 7 C18 8 17 9 16 9 L15 9 C14 9 13 10 13 11 L13 15" 
          stroke="#2ECC71" 
          stroke-width="1.5"
          fill="none"/>
    
    <!-- Tubing spring effect -->
    <path d="M13 15 C13 15.5 13 16 13 16.5" 
          stroke="#2ECC71" 
          stroke-width="1.5"
          fill="none"
          stroke-dasharray="0.5,0.5"/>
    
    <!-- Chest piece stem -->
    <path d="M13 16.5 L13 17.5" 
          stroke="#2ECC71" 
          stroke-width="1.5"
          fill="none"/>
    
    <!-- Chest piece (diaphragm) -->
    <circle cx="13" cy="19" r="1.5" fill="#2ECC71"/>
    <circle cx="13" cy="19" r="1" fill="#1A934A"/>
    
    <!-- Chest piece rim -->
    <circle cx="13" cy="19" r="1.5" fill="none" stroke="#1A934A" stroke-width="0.3"/>
</svg>